<svg xmlns="http://www.w3.org/2000/svg" width="1000" height="1415" viewBox="0 0 1000 1415" xml:space="preserve">
	<g xmlns="http://www.w3.org/2000/svg" id="civ1">
        <g id="main" fill="#ff0000">
          <path fill="inherit" d="M344.177 755.519c-1.889 3.453-3.058 7.267-4.389 11.007.775-3.53 1.301-7.135 1.911-10.594.833-4.717 1.703-9.396 2.303-14.15.412-3.261 1.029-6.811 1.174-10.277.083-.535.164-1.07.231-1.605.292-1.342.541-2.697.758-4.06-.609-.15-1.227-.245-1.823-.452-1.149-.398-1.948-1.466-1.794-2.679-4.753-1.564-5.17-11.625-5.777-15.306-1.694-10.258-2.929-20.344-7.4-29.891-5.313-11.344-12.682-21.815-20.246-31.759-3.947-5.188-8.199-10.147-13.16-14.401-2.346-2.012-4.838-3.914-7.645-5.248-1.938-.92-3.088-1.148-4.021-3.11-.439-.925-.286-2.022.597-2.615-.111-1.123.188-2.332 1.076-3.406 3.14-3.802 7.508-6.79 11.101-10.181a308.243 308.243 0 0 0 11.643-11.567c7.883-8.276 15.448-16.853 22.737-25.656 6.835-8.255 13.362-16.668 19.972-25.088 3.205-4.083 8.167-12.7 14.024-15.013 1.245-4.695 4.026-9.554 5.577-13.178 3.749-8.759 7.413-17.635 9.478-26.968 3.433-15.518 4.849-31.564 2.822-47.388a115.112 115.112 0 0 0-13.474-41.072c-6.538-3.839-13.852-5.726-21.632-4.792-4.9.588-9.439 2.575-13.71 4.958-.451.252-.878.534-1.307.814-.169-.341-.324-.689-.496-1.028-.149-.294-.303-.591-.455-.887a118.773 118.773 0 0 0-14.01 8.52c-6.169 4.366-12.226 9.141-17.333 14.741l-.008.009c-2.435 3.321-4.928 6.595-7.053 9.954-5.238 8.28-10.039 16.816-14.818 25.366-7.335 13.125-14.787 27.606-25.493 38.547-2.697 4.4-4.849 9.232-6.815 12.79-7.321 13.244-17.031 25.236-25.625 37.661-4.313 6.236-8 12.827-12.127 19.173-4.042 6.216-8.297 12.278-12.116 18.638-3.389 5.643-6.293 11.558-8.396 17.799-1.022 3.033-2.079 6.875-2.21 10.542-1.971 2.836-3.362 6.512-4.107 8.75-2.396 7.197-1.841 15.135-.561 22.48 3.138 17.991 12.481 35.077 22.204 50.292 9.933 15.542 21.969 29.643 35.375 42.292 6.781 8.575 14.659 16.46 23 23.213 5.883 4.763 12.223 8.911 19.007 12.267 1.896.938 3.985 1.982 6.164 2.918.311.641.636 1.271.974 1.895 3.51.152 7.484 1.381 10.625 2.446.669-.056 1.359-.102 2.073-.178 2.933-.313 6.055-1.244 9-1.244 2.126 0 3.621 1.312 4.695 3.062 1.519-.124 2.996.042 4.461.346.391-.184.783-.366 1.153-.567 1.165.446 2.354.789 3.534 1.034.323.364.67.665 1.027.938 1.852.331 3.961.519 5.752 1.146 2.632-.578 5.288-2.381 7.276-4.878 4.537-5.696 10.109-16.593 8.02-24.129-.217-.782-1.342-.964-1.743-.231z"/>
        </g>
        <g id="shadow">
          <path opacity=".3" d="M378.71 472.21c-9.351-7.707-24.034-7.631-34.463-1.43.111-.52-.563-.938-1-.534-1.404 1.293-2.704 2.725-3.927 4.243-2.534 2.406-4.563 5.31-5.855 8.67-2.102 3.577-4.026 7.25-5.964 10.659-5.517 9.706-10.903 19.531-17.374 28.647-7.145 10.065-16.991 17.487-24.76 26.939-7.252 8.824-13.454 18.918-22.998 25.516-.465.322-.732.84-.574 1.411 2.528 9.157 11.714 20.411 2.849 28.645-7.536 6.999-20.626 2.814-29.644 2.129-1.689-.128-1.935 2.093-.788 2.908 12.553 8.918 29.557 4.569 43.127 11.019 1.167.555 2.257-.057 2.736-.937.51.15 1.014.315 1.494.544.63.302 1.313.267 1.835-.236 4.364-4.208 7.84-9.429 11.313-14.37a73.81 73.81 0 0 1 1.933-2.593 238.678 238.678 0 0 1 5.413-5.186c1.715-1.054 3.216-2.588 4.583-4.199 6.559-5.971 13.126-11.923 18.798-18.765 7.801-9.409 13.938-20.065 21.653-29.525 10.079-12.357 21.525-23.415 30.176-36.92 6.951-10.849 13.414-26.764 1.437-36.635zM343.954 725.309c-1.383-1-2.784-1.985-4.083-3.094-.519-.442-1.096-.807-1.658-1.188 1.785-3.716.614-9.924-.082-13.199-1.4-6.589-4.062-13.551-7.11-19.564-.11-.217-.312-.325-.531-.36a18.582 18.582 0 0 0-.762-1.664c-.393-.746-1.592-.4-1.572.426.214 9.131-.659 17.142-6.576 24.496-3.926 4.881-9.192 8.447-14.805 11.108-11.853 5.618-26.036 5.915-38.71 3.51-14.947-2.836-27.393-11.324-39.195-20.534-10.375-8.096-19.723-17.219-28.417-27a199.937 199.937 0 0 0-2.515-4.518c-.477-.825-1.352-1.04-2.104-.815a314.624 314.624 0 0 1-3.225-3.855c-.283-.345-.854.105-.614.474a133.438 133.438 0 0 0 2.806 4.122c-.195.28-.321.619-.328 1.014-.094 5.336 4.565 11.131 7.269 15.435 4.728 7.526 10.308 14.605 15.726 21.64 11.129 14.451 23.239 28.124 37.079 40.044 10.06 8.663 21.264 16.918 32.872 23.415 6.03 3.376 21.136 10.94 26.829 3.27.817 3.027 5.508 5.354 7.993 6.312 3.529 1.357 8.384 1.952 10.797-1.633.095.033.184.077.283.103.624.161 1.485-.2 1.595-.906.28-1.792-.339-2.869-1.02-4.522-.91-2.206-1.26-4.627-1.461-6.984-.453-5.307.387-10.627 1.604-15.775a73.896 73.896 0 0 1 5.435-15.311c1.594-3.28 3.752-6.225 5.514-9.4.552.227 1.134.298 1.712.003 2.74-1.403-1.733-4.319-2.746-5.05z"/>
        </g>
        <g id="light" fill="#ffffff">
          <path fill="inherit" opacity=".3" d="M189.867 624.867c-1.37 1.227-2.12 3.004-2.933 4.622-.9 1.792-1.757 3.476-2.145 5.453-.045.231.281.401.4.168.88-1.72 1.558-3.5 2.438-5.217.831-1.619 1.983-3.108 2.554-4.844.062-.188-.182-.299-.314-.182zM195.79 610.79c-3.504 3.08-7.203 6.694-9.141 11.005-.211.469.42.865.701.41 2.507-4.054 6.762-6.773 8.906-11.055a.298.298 0 0 0-.466-.36zM197 603.688c-3.344.173-5.58 3.083-5.469 6.313.021.611.887.596.938 0 .247-2.938 2.521-4.179 4.689-5.73.232-.167.179-.601-.158-.583zM312.85 434.744c-.786.333-1.491.943-2.191 1.427-.681.472-1.367.946-1.957 1.531-.388.385.198.964.597.597.681-.628 1.485-1.105 2.261-1.604.625-.402 1.368-.853 1.697-1.544.135-.285-.132-.524-.407-.407zM316.615 427.996c-.16-.158-.437-.202-.623-.059a1.188 1.188 0 0 0-.168.147l-.033.038c-.025.01-.055.007-.08.021-.405.237-.737.979-.909 1.391-.189.455-.378.966-.365 1.466.02.737 1.057.711 1.125 0-.009.091.037-.137.045-.162.023-.079.052-.158.085-.233.111-.254.252-.493.383-.738.134-.252.298-.543.402-.837.197-.32.433-.744.138-1.034zM324.787 433.636c-3 2.234-5.748 5.137-8.163 7.989a.531.531 0 0 0 .751.751c2.852-2.415 5.754-5.163 7.989-8.163.249-.334-.243-.826-.577-.577zM245.834 526.717c-2.092 1.141-3.028 3.62-5.103 4.824-.599.348-.073 1.216.536.918 1.05-.514 1.913-1.262 2.671-2.145.843-.979 1.747-1.996 2.344-3.149.152-.291-.152-.61-.448-.448zM263.109 496c.004-.141-.216-.141-.219 0-.03 1.469-.643 2.51-1.56 3.517a.547.547 0 0 0-.331-.11c-.766 0-.766 1.188 0 1.188.544 0 .693-.594.465-.941.965-1.046 1.603-2.13 1.645-3.654zM275.536 475.536c-.388.337-.78.649-1.094 1.057-.423.549.416 1.388.965.965.408-.314.72-.707 1.057-1.094.557-.64-.288-1.485-.928-.928zM280 466.484c-.665 0-.665 1.031 0 1.031s.665-1.031 0-1.031z M337.014 400.313c-10.448 4.535-20.412 10.258-29.206 17.523-9.891 8.171-16.794 18.803-23.364 29.665-16.189 26.77-31.616 54.174-49.315 79.989-11.116 16.213-23.678 31.342-34.265 47.939-5.553 8.705-10.637 17.77-14.512 27.354-2.7 6.679-6.156 16.36-4.377 23.721.21.871.436 1.729.693 2.586.108.359.708.308.675-.091a47.667 47.667 0 0 1-.13-2.579.482.482 0 0 0 .254-.292c3.672-10.676 8.162-20.222 13.883-29.924.233-.396-.317-.831-.638-.492a38.553 38.553 0 0 0-3.844 4.804c1.275-2.375 2.549-4.748 3.63-7.225a.608.608 0 0 0 .049-.229 482.714 482.714 0 0 1 5.96-10.956c.109.458.806.576.988.03 1.346-4.023 3.515-7.457 6.042-10.822.263-.35.065-.675-.243-.818 3.399-5.473 7.099-10.772 10.673-16.141.126.023.26-.022.341-.175.377-.707.775-1.403 1.163-2.105 2.1-3.21 4.139-6.455 6.012-9.793a.517.517 0 0 0 .063-.27 129.69 129.69 0 0 1 2.681-3.88c.075-.104.036-.211-.037-.292a428.14 428.14 0 0 0 6.219-8.666c17.012-24.452 31.417-50.508 47.94-75.251 7.415-11.102 14.645-22.109 24.371-31.361 8.785-8.356 19.417-13.738 30.263-18.879 2.304-1.087.295-4.352-1.969-3.37zM207.209 570.544c-4.458 7.499-8.692 15.142-12.437 23.018-3.249 3.932-5.451 9.009-7.352 13.655-1.345 3.287-2.701 6.779-3.654 10.334 2.219-14.9 10.53-28.724 18.62-41.231 3.134-4.846 6.444-9.564 9.825-14.229-1.689 2.828-3.344 5.664-5.002 8.453zM263.125 633c-.007-.161-.243-.161-.25 0l-.047 1c-.01.222.354.222.344 0l-.047-1zM253 630.672c-1.713 0-1.713 2.656 0 2.656s1.713-2.656 0-2.656zM238.917 632.699c-4.206 1.067-6.403 6.422-7.369 10.177-.15.586.749.833.904.249.53-1.991 1.259-3.871 2.35-5.625 1.152-1.853 2.847-2.864 4.419-4.279.241-.217-.013-.596-.304-.522zM230 636.953c-.061 0-.061.094 0 .094s.061-.094 0-.094zM231.453 634c-.045-.584-.86-.583-.906 0-.033.414.017 1.463-.547 1.516-.611.057-.635.969 0 .969.565 0 1.027-.234 1.298-.741.284-.53.2-1.17.155-1.744zM231 627.703c-1.332-.083-2.415 1.002-2.5 2.297-.042.64.985.647 1 0 .02-.832.778-1.592 1.579-1.714.348-.053.236-.563-.079-.583zM205 663.874c-.388-.99-1.607-.976-1.999 0-.438 1.086.138 2.464-.664 3.463-.74.923.437 2.186 1.326 1.326.642-.621.998-1.419 1.226-2.271.195-.728.395-1.792.111-2.518zM197.247 658.516a.629.629 0 0 0-.412-.17c-.184-.006-.183-.002-.13.004-.281-.009-.508.203-.684.396-.705.77-1.026 2.222-.911 3.255.045.4.24.745.654.859.422.116 1.027-.141 1.096-.622.082-.577.217-1.166.343-1.736l.023-.111a.46.46 0 0 0 .243-.39c.031-.432.149-1.152-.222-1.485zM192.706 653.044c-.151-.42-.572-.466-.935-.289-.829.406-1.434 1.298-1.365 2.245.045.626 1.052.857 1.167.158.048-.294.227-.556.404-.813a.347.347 0 0 0 .334-.163c.209-.345.51-.82.395-1.138zM237.795 580.649c-2.935 1.443-5.306 4.171-7.968 6.054-.356.252-.029.839.347.594 2.75-1.794 5.681-3.803 8.114-6.01.359-.326-.098-.832-.493-.638zM246.313 577.625c-.112-.403-.596-.267-.982-.107l-.062.013c-.384.075-.722.239-1.08.394-.471.204-.869.372-1.331.564-.618.257-.364 1.273.282 1.024.818-.314 1.803-.561 2.508-1.082.257-.189.772-.424.665-.806zM257 581.469c-.685 0-.685 1.063 0 1.063s.685-1.063 0-1.063z"/>
        </g>
        <g id="fill_light" fill="#00ffff">
          <path fill="inherit" opacity=".3" d="M276.359 614.615c-.878-2.704-1.749-5.292-3.116-7.757-.167-.302-.555-.078-.514.217.354 2.54 1.088 4.917 1.853 7.394.382 1.239.733 2.487 1.116 3.726.214.692.722 1.225.85 1.93.098.535.912.388.921-.125.031-1.903-.52-3.57-1.11-5.385zM335.668 557.668c-9.949 11.213-21.126 20.768-31.98 31.082-8.208 7.801-22.202 20.544-21.079 33.25.037.417.661.559.767.104.804-3.442 2.015-6.619 3.519-9.604 1.431-.91 2.683-2.245 3.861-3.346 3.2-2.991 6.136-6.29 9.13-9.484 3.297-3.517 6.582-7.042 9.934-10.506 1.556-1.607 3.328-3.158 4.887-4.857.687-.612 1.369-1.23 2.057-1.84 3.038-2.699 7.195-5.292 8.992-9.025.322-.669-.202-1.501-.988-1.285-.208.057-.408.146-.612.217 4.404-4.186 9.444-8.692 12.25-14.137.233-.455-.369-.984-.738-.569zM332.796 695.535c-.418-.97-1.983-.273-1.685.71 2.525 8.326 4.408 16.04 5.155 24.755.081.938 1.415.954 1.469 0 .48-8.561-1.556-17.629-4.939-25.465z"/>
        </g>
        <g id="lines">
          <path d="M343.28 723.504c-1.564-.762-3.197-1.23-4.856-1.37a7.47 7.47 0 0 0 .311-.587l.061-.082a.787.787 0 0 0 .155-.433c1.301-3.33.665-7.753.17-11.065-.018-.12-.223-.12-.241 0-.016.105-.029.208-.044.313-5.279-16.275-9.262-32.727-17.367-47.934-3.642-6.833-8.626-12.807-13.791-18.523-4.31-4.769-8.619-9.65-13.05-14.34a16.725 16.725 0 0 0-2.625-2.746c-.122-.124-.24-.254-.361-.378a.827.827 0 0 0-.382-.218c-2.636-2.012-5.866-3.498-9.191-4.646-1.478-4.155-3.772-8.156-5.674-12.101-2.41-5-5.287-9.654-9.029-13.759-.39-.427-1.17.158-.81.625 3.351 4.347 5.942 9.096 8.258 14.058 1.589 3.406 2.952 7.163 4.942 10.425-2.815-.845-5.613-1.484-8.09-2.029-9.518-2.093-19.366-2.64-28.527-6.211-.548-.214-.912.678-.397.942 7.998 4.107 16.384 5.741 25.103 7.636 4.577.995 9.058 2.086 13.449 3.738 3.887 1.462 7.272 3.976 11.008 5.689 3.369 4.586 7.536 8.724 11.322 12.879 5.384 5.911 10.569 11.979 14.83 18.766 9.412 14.994 13.078 32.522 18.57 49.115.252.762 1.088.852 1.6.519-.172 1.239-.328 2.473-.417 3.75-.109 1.555-.486 3.117-.621 4.673a.83.83 0 0 0-.234.137 45.417 45.417 0 0 0-2.047 1.936c-.158.029-.317.049-.475.084-.406.091-.542.504-.435.839-3.677 3.871-6.816 8.446-9.484 13.222-.414.073-.557.457-.436.771a99.477 99.477 0 0 0-4.699 9.915c-2.125 5.192-4.017 10.772-5.132 16.462a.568.568 0 0 0-.134.692c-.826 4.479-1.157 9.021-.715 13.487-.22-.096-.437-.186-.649-.268-.488-.188-.765.409-.6.781.09.204.197.397.301.593-3.965-.271-8.032.333-12.088-.498-6.238-1.277-12.142-3.934-17.734-6.908-13.114-6.977-24.633-16.698-35.302-26.936-17.851-17.129-35.054-36.603-47.058-58.467a.562.562 0 0 0-.027-.227c-3.962-11.483-10.651-21.845-14.505-33.453-3.638-10.958-5.166-22.818-1.587-33.714.435.276 1.116.179 1.257-.439 4.463-19.558 15.103-38.107 25.662-54.937 11.869-18.917 25.329-36.774 37.854-55.25 11.074-16.333 20.647-33.579 30.853-50.451 9.124-15.083 19.375-30.44 32.846-42.083a.4.4 0 0 0 .239-.068c4.783-3.39 9.291-7.161 14.404-10.067 6.357-3.613 12.681-3.978 19.473-5.897.449-.127.477-.822 0-.935-5.857-1.375-12.422 1.118-17.754 3.417-6.283 2.71-12.074 6.781-16.285 12.151-13.333 10.332-23.346 24.261-32.475 38.354-11.271 17.4-20.95 35.75-32.498 52.985-12.733 19.004-26.531 37.271-38.781 56.602-5.983 9.443-11.514 19.178-16.248 29.31-3.401 7.278-8.07 16.379-8.81 24.681-4.781 10.11-4.144 21.636-1.627 32.543 2.877 12.471 8.387 26.766 16.275 37.084 4.045 9.685 10.419 18.486 16.607 26.841 9.54 12.88 20.2 24.895 31.919 35.829 10.867 10.138 22.771 19.68 35.949 26.645 5.483 2.898 11.334 5.207 17.414 6.472 3.99.829 9.961 1.853 13.814-.179 2.819 2.851 7.221 4.416 10.953 5.08 3.92.698 6.633-.306 8.837-2.604.146.308.283.623.447.919.782 1.414 2.586.359 2.399-1.011a101.322 101.322 0 0 1-.629-5.993c.2-.085.407-.159.6-.254.422-.208.217-.888-.236-.873-.153.005-.303.013-.456.019-.461-7.146-.04-13.968 1.445-21.413 1.823-9.144 5.202-17.471 9.691-25.589.053.016.1.041.153.055.384.1.803-.189.791-.603-.082-2.772-3.133-4.416-5.349-5.495zm-27.245 55.341c.16-1.63.336-3.242.521-4.848 4.035 3.378 10.686 5.35 16.274 4.654.252 1.338.589 2.632 1.054 3.844-5.286 3.929-12.305-.751-17.849-3.65zm16.503-2.104c-2.168.093-4.318.104-6.577-.256-3.323-.53-6.353-1.944-9.278-3.541.272-2.256.588-4.488.956-6.708 4.119 2.113 9.249 3.457 13.474 2.171.408-.125.396-.685 0-.814-2.338-.766-4.839-.716-7.253-1.134-2.025-.35-4.023-1.01-5.949-1.8.677-3.775 1.541-7.513 2.705-11.241 4.149 1.986 8.981 4.331 13.385 3.988.048-.004.082-.033.123-.051-1.219 5.761-2.35 12.992-1.586 19.386zm1.962-21.131c-.079.353-.158.735-.238 1.103-.022-.02-.027-.047-.057-.063-1.995-1.091-4.247-1.558-6.406-2.234-2.269-.711-4.507-1.532-6.751-2.327.298-.898.609-1.798.946-2.696 1.506-4.014 3.381-7.738 5.473-11.318 1.639.417 3.245 1.008 4.782 1.671 1.577.681 3.014 1.583 4.751 1.709.425.031.558-.501.32-.773-1.339-1.536-3.371-2.211-5.22-2.977a17.142 17.142 0 0 0-3.776-1.088c1.87-3.077 3.901-6.052 6.009-9.007 3.483.46 6.035 2.819 8.236 5.396-4.337 6.604-6.474 15.49-8.069 22.604zm8.986-23.912c-1.74-2.929-4.93-4.924-8.342-5.219.559-.775 1.118-1.55 1.685-2.325 1.733.445 3.464.914 5.098 1.666 1.525.702 2.724 2.018 4.108 2.933a23.604 23.604 0 0 0-2.549 2.945z M389.109 455c-.078-1.241-1.802-1.521-2.179-.295-2.325 7.555-3.252 15.506-5.462 23.12-2.428 8.368-5.84 16.405-9.646 24.229-7.492 15.401-16.929 29.818-26.132 44.229-17.632 27.61-45.796 46.701-62.974 74.551-.229.371.317.656.566.331 20.283-26.46 47.539-46.917 65.862-74.915 9.365-14.311 18.693-28.657 26.254-44.027 3.48-7.075 6.442-14.404 8.938-21.881 2.656-7.956 5.307-16.872 4.773-25.342zM262 741.078c-1.189 0-1.189 1.844 0 1.844s1.189-1.844 0-1.844zM255.38 741.62c-.672-.672-1.495.37-1.955.806-.763.721.429 1.911 1.149 1.148.436-.46 1.478-1.283.806-1.954zM248.445 739.74c-.819-1.559-1.629-3.145-2.176-4.82-.536-1.645-.7-3.299-1.059-4.979-.044-.205-.383-.213-.422 0-.669 3.674.594 7.543 2.846 10.423.377.481 1.071-.131.811-.624zM243.558 733.847c-.176-.539-.323-1.07-.548-1.593-.488-1.13-.793-2.69-1.733-3.53-.202-.18-.594-.135-.653.173-.239 1.244.476 2.571.947 3.697.255.611.554 1.154.93 1.698.355.512 1.271.212 1.057-.445zM236.166 726.397c-.86-.119-1.711-.369-2.446-.839-1.081-.691-1.618-1.775-2.37-2.764-.225-.296-.769-.238-.757.205.075 2.809 2.698 4.901 5.406 4.625.644-.064.918-1.123.167-1.227zM188.892 624.608c-2.595 1.062-3.636 4.824-4.585 7.201-.309.774.914 1.237 1.313.554.652-1.114 1.152-2.288 1.719-3.445.628-1.28 1.581-2.467 2.052-3.81.096-.273-.216-.616-.499-.5zM192.858 613.757c-3.28 1.484-5.27 4.781-6.4 8.093-.236.691.842.975 1.085.299 1.153-3.212 3.295-5.565 5.656-7.951.238-.24-.062-.567-.341-.441zM197.713 601.713c-1.16 1.214-2.202 2.479-3.458 3.607-1.213 1.09-2.439 2.189-3.576 3.36-.408.42.214 1.039.641.641 2.377-2.214 5.581-4.09 7.03-7.115.192-.4-.302-.845-.637-.493z M327 559.969c-1.33 0-1.33 2.063 0 2.063s1.33-2.063 0-2.063zM331 551.984c-1.31 0-1.31 2.031 0 2.031s1.31-2.031 0-2.031zM338.321 549.442a.729.729 0 0 0-.791-.129c-.003-.004-.02-.004-.073.011a.9.9 0 0 0-.454.32c-.756.958-1.155 2.128-1.003 3.355.056.45.265.835.734.964.479.132 1.146-.159 1.23-.699.034-.221.096-.437.161-.651a3.698 3.698 0 0 0 .15-.68l.003-.023.044-.28c.012-.07.015-.138.023-.208a.576.576 0 0 0 .217-.423c.04-.468.156-1.194-.241-1.557zM341.375 537.625c-.354-.428-1.015.034-.888.517.444 1.681 1.618 3.093 1.762 4.859.078.953 1.478.979 1.5 0 .049-2.127-1.062-3.789-2.374-5.376zM314.281 426c.022 1.032.017 2.11.357 3.1a.379.379 0 0 0 .724 0c.34-.989.334-2.067.357-3.1.02-.927-1.458-.927-1.438 0zM310 435.094c-.575 0-1.049.581-.874 1.147.124.401.192.827.532 1.102.222.18.462.18.685 0 .339-.274.408-.701.532-1.102.174-.566-.3-1.147-.875-1.147zM321.271 433.574a25.861 25.861 0 0 1-3.318 3.672c-1.17 1.062-2.702 2.071-3.574 3.391-.373.564.237 1.174.812 1.056 1.617-.333 3.183-1.743 4.311-2.897 1.26-1.29 2.293-2.835 3.227-4.37.58-.954-.823-1.699-1.458-.852z"/>
        </g>
      </g></svg>
