<svg xmlns="http://www.w3.org/2000/svg" width="1000" height="1415" viewBox="0 0 1000 1415" xml:space="preserve">
	<g xmlns="http://www.w3.org/2000/svg" id="ver1">
        <g id="eye_white" fill="#F2F2F2">
          <path fill="inherit" d="M538.983 200.669a6.777 6.777 0 0 0-1.677-1.709c-.776-.547-1.437-.465-2.307-.367-.053.006-.104.025-.156.041a15.733 15.733 0 0 0-4.45-.157c-.402-.329-.93-.49-1.483-.311-2.115.686-3.963 2.227-5.579 3.723-1.635 1.513-3.931 2.617-4.328 4.974-.055.322.125.6.451.641.12.247.273.473.448.644 2.846 2.79 7.042 2.507 10.662 1.753 2.573-.535 5.723-1.636 7.591-3.671.699.421 1.771.388 2.153-.464.763-1.695-.335-3.678-1.325-5.097zM484.868 209.802a1.766 1.766 0 0 0-.334-.637c-.246-2.75-5.797-4.895-7.672-5.232-3.671-.661-8.179.1-11.448 2.326-1.636-.177-2.867.91-4.072 1.924-1.134.954-2.111 2.091-3.216 2.633a1.717 1.717 0 0 0-.896 1.009c-.554.333-1.049.756-1.414 1.285-.243.352-.17.964.16 1.242.115.097.215.19.363.236.449.139.805-.058 1.229-.17.128-.034.259-.059.389-.083.057.048.123.081.184.122 2.146 5.082 17.604 2.901 22.739-1.413 1.269-.021 2.789-.895 3.542-1.551.455-.398.604-1.127.446-1.691z"/>
        </g>
        <g id="eye_color" fill="#bbbbbb">
          <path fill="inherit" d="M534.133 199.326a.875.875 0 0 0-.151-.24 5.857 5.857 0 0 0-.123-1.322c-.192-.891-1.479-.811-1.717 0-.354 1.212-.575 2.339-1.162 3.447-.26.325-.522.646-.806.944a12.864 12.864 0 0 1-2.045 1.74c-.969.668-1.699.487-2.695.145-.246-.432-.419-1.004-.615-1.57.127-.282.293-.546.423-.743.432-.655.133-1.587-.516-1.967-.739-.433-1.492-.106-1.967.516-.905 1.187-1.369 2.638-.922 4.104.17.556.575 1.212 1.098 1.75 1.107 1.499 2.846 2.497 4.337 1.691 1.637-.883 3.425-2.239 4.747-3.883 1.411-1.24 2.785-2.96 2.114-4.612zM477.104 202.789a.946.946 0 0 0-1.065-.067c-.078.026-.157.049-.233.09-.104.057-.505.41-.336.281-.487.369-.621.845-.386 1.405-.028.399-.062.791-.107 1.182-.038.094-.072.187-.113.281-.381.877-1.154 1.529-1.16 2.538 0 .017.009.033.01.05-.377.271-.746.573-1.173.892-1.493 1.116-3.112.919-4.721.337-.432-.475-.941-.976-1.316-1.504a5.39 5.39 0 0 1-.125-.664 3.489 3.489 0 0 1 .011-.89c.063-.426-.077-.805-.046-1.222.057-.756-.949-1.087-1.44-.597-.49.489-.836.746-1.064 1.438-.194.593-.246 1.268-.223 1.887.052 1.366.767 2.973 1.839 3.831.327.262.656.382 1.003.385 1.084.784 2.838 1.027 3.967 1.089 1.762.097 4.582-1.049 5.601-2.797a.918.918 0 0 0 .27-.271c.396-.645.541-1.359.651-2.089.121-.431.192-.871.209-1.304.476-.866.749-1.856.72-3.072a1.372 1.372 0 0 0-.773-1.209z"/>
        </g>
        <g id="shadow">
          <path opacity=".3" d="M549.708 188.805c-.136-.499-.863-.757-1.228-.324-.096.114-.176.238-.264.357a1.334 1.334 0 0 0-.438-.238c-1.082-.335-2.141-.285-3.081.111-3.745-1.167-8.018.23-11.715 1.226-4.828 1.3-10.394 2.2-15.059 4.132a1.496 1.496 0 0 0-.995.141c-1.349.683-2.208 2.396-2.805 3.739-.236.53-.44 1.061-.624 1.594a7.73 7.73 0 0 0-2.104 3.061c-.593 1.542-1.049 4.042-.157 5.646.141 1.638.63 3.25 1.51 4.774.709 1.228 2.847 1.415 3.504 0 1.304-2.807 2.508-5.689 3.514-8.616 1.082-3.146 2.899-5.828 4.604-8.643a51.66 51.66 0 0 0 2.916-.671c.202.143.453.25.771.301 3.194.505 6.449-.168 9.582.789 4.659 1.423 4.295 6.552 7.739 8.882.674.456 1.581-.019 1.812-.717.029-.035.066-.062.093-.1 1.47-2.114 1.504-5.205 1.975-7.703.465-2.473 1.126-5.263.45-7.741zm-10.439 3.398a61.42 61.42 0 0 1 1.031-.119c.095.268.22.529.363.786a9.064 9.064 0 0 0-1.394-.667zM495.867 199.492c-.072-.52-.149-.99-.226-1.43.749-.496.984-1.665.014-2.182-6.458-3.441-15.885-1.555-22.859-.845-8.897.906-18.657-.378-27.29 2.172-.953.281-1.364 1.134-1.306 1.945-.673.349-1.322.752-1.901 1.049-1.23.629-3.733 1.566-4.068 3.048-.091.401-.04.841.126 1.224-.015-.004-.028-.012-.043-.016-1.2-.321-2.058.951-1.531 1.991.929 1.836 2.584 3.491 3.93 5.037 1.147 1.318 3.949 4.273 5.865 2.901.464-.332.816-.834.836-1.398 2.918-.543 5.31-2.452 7.642-4.269 5.013-3.902 9.982-6.181 16.447-6.262 8.684-.109 12.044 8.216 18.946 11.095-.023.092-.05.183-.066.277-.056.323.082.717.447.788 5.003.977 5.735-5.889 5.384-11.642.033-1.173-.036-2.412-.347-3.483z"/>
        </g>
        <g id="lines_13_">
          <path d="M540.626 195.284c-4.622-2.043-11.327-1.065-15.808.905-.371.164-.103.8.277.657 2.623-.989 5.347-1.365 8.14-1.506 2.452-.124 4.837.447 7.265.409.23-.002.365-.359.126-.465z M540.063 195.774c-.216-.084-.406.246-.229.392 1.028.84 1.256 2.656 1.485 3.884.033.177.333.183.361 0 .224-1.452-.037-3.659-1.617-4.276z M545.909 199.475c-.418 1.373-1.367 2.359-2.632 3.043-.075-.148-.214-.464-.425-.504.103.028.202.086.297.018.141-.102.222-.223.061-.354-.682-.56-1.626-.547-2.29-1.154-.023-.021-.05 0-.074-.017a9.197 9.197 0 0 0-.456-.682c.063-.019.128-.021.189-.046.281-.113.281-.456 0-.569a2.969 2.969 0 0 0-.853-.179c-.013-.013-.022-.027-.035-.04.388-.164.57-.723.093-.979-1.901-1.015-3.951-1.334-6.044-1.338-.299-.211-.696-.169-.969.021a30.18 30.18 0 0 0-1.271.076c-1.763.145-4.011.302-5.913.912.161-.545-.527-1.11-1.029-.625-3.358 3.248-6.291 7.786-7.494 12.321-.128.482.614.83.828.349.211-.474.436-.921.655-1.379a.525.525 0 0 0 .201.582c1.249.859 2.657 1.291 4.139 1.609 1.163.25 2.876.584 3.757-.397.086-.096.077-.251-.041-.319-.968-.555-2.292-.328-3.374-.524-.61-.11-1.202-.292-1.789-.49.183-.292.165-.715-.211-1.001-.323-.246-.594-.503-.796-.857-.186-.326-.446-.704-.541-1.061-.01-.038-.042-.055-.061-.086a42.472 42.472 0 0 1 1.684-2.786c2.058 11.968 16.666.62 13.188-5.249.942.107 1.873.294 2.787.575a.649.649 0 0 0 .112.551c.146.177.282.359.425.537-.03.265.115.549.443.56.372.49.727.993 1.032 1.533.6 1.06.881 2.328 1.765 3.204.01.01.021.01.031.018-.74.502-1.458 1.042-2.229 1.513-1.61.981-3.394 1.761-5.165 2.391-.432.154-.264.807.191.693 3.041-.761 7.549-2.269 9.093-5.236.106-.203-.102-.392-.299-.299-.354.166-.69.356-1.019.559.075-.279.115-.56.104-.841.051.004.104.012.154.015.029.208.204.397.474.333.902-.217 1.808-.619 2.374-1.382.63-.85.889-1.951 1.113-2.97.027-.117-.144-.165-.18-.049zm-16.075-1.56a.604.604 0 0 0-.265.155c-.242.243-.591.401-.81.65-.382.434-.726.871-1.048 1.352-.462.69-1.096 1.416-1.294 2.244l-.183.02a1.045 1.045 0 0 1-.33-.123c-.028-.026-.047-.064-.07-.096a.78.78 0 0 0 .54-.787c-.006-.302-.026-.619.017-.919.059-.413.219-.809.302-1.218a.735.735 0 0 0-.057-.447c1.029-.297 2.055-.643 3.076-.814.041-.009.082-.012.122-.017zm3.616 3.549c-.509 1.668-1.854 3.103-3.224 4.12-1.301.967-2.841 1.669-4.485 1.637-2.267-.045-3.444-2.569-4.069-4.445a39.415 39.415 0 0 1 2.521-3.389c-.614 1.301-1.008 2.684-.3 4.042.548 1.053 1.95 1.589 3.079 1.507 2.969-.214 5.563-2.83 5.537-5.839-.007-.805-.557-1.259-1.173-1.365.438-.036.877-.062 1.313-.066.955 1.284 1.293 2.185.801 3.798zM520.4 199.4c-.434.427-.634 1.008-1.066 1.434-.219.215.142.562.332.331.395-.479.54-1.088.934-1.566.113-.137-.068-.328-.2-.199zM484.97 204.03c-1.452-1.452-2.957-2.973-4.949-3.605-.075-.024-.132.077-.076.13 1.469 1.4 3.242 2.392 4.761 3.738 1.618 1.434 2.765 3.208 4.261 4.74.04.041.095-.011.074-.057-.913-1.998-2.518-3.394-4.071-4.946zM477.55 200.319c-6.028-.921-15.795.906-19.749 5.982-.159.203-.023.561.273.47 3.081-.948 5.829-2.8 8.911-3.846 3.424-1.161 7.028-1.571 10.564-2.245.178-.033.184-.333.001-.361zM452.5 209.328c-1.728.165-3.439-.133-5.155-.188-.591-.503-1.324-.804-1.945-1.28a6.04 6.04 0 0 0-1.863-.996c-.101-.032-.205.072-.173.173.337 1.065 1.288 2.193 2.407 2.694.021.021.027.048.055.065 1.797 1.1 5.382 1.867 6.822-.21.071-.102-.022-.27-.148-.258zM475 216.25c-1.276.113-2.711.697-4 .81-1.242.108-2 .064-4 .065v.75c2-.001 2.813-.014 4.084-.196 1.313-.188 2.798-.158 3.917-.963.181-.13.271-.49-.001-.466zM476 222.844c-2.493-.051-5.016.294-7.5.438-.282.016-.282.421 0 .438 2.428.139 5.308.564 7.579-.584.144-.074.069-.289-.079-.292zM538.871 212.033c-1.361.572-2.629 1.358-3.945 2.028-1.993 1.015-3.695 1.547-5.926 1.626-.347.012-.433.522-.083.614 1.521.398 3.156-.216 4.61-.66 1.961-.598 3.969-1.667 5.717-2.723.454-.273.148-1.104-.373-.885z M490.398 212.602c-3.317-3.879-7.019-7.739-11.59-10.128-.324-.169-.625-.028-.789.204-3.904-.91-9.106 1.083-12.891 1.684-.022-.022-.039-.051-.073-.057-.99-.167-2.024 1.063-2.716 1.655-.519.445-1.014.916-1.491 1.405-.13.133-.233.29-.328.455-.921.509-1.767 1.126-2.649 1.763-.794.573-1.917 1.159-2.457 2.033-.437.054-.871.125-1.31.281-.626.224-1.143.598-1.746.856-.082.035-.113.106-.125.18a.477.477 0 0 1-.176.078c-.242.034-.405.359-.328.578.077.219.2.377.385.516.164.123.354.127.547.112-.026.007-.054.011-.08.018-.218.062-.456.257-.494.494-.049.307-.033.456.182.688.174.189.447.238.688.182.735-.17 1.441-.263 2.196-.227.359.017.702.107 1.046.201.389.106.823.034 1.237.152.233.066.383-.224.228-.392-.022-.024-.042-.039-.063-.062.458.181.939.315 1.446.481.559.183 1.115.373 1.668.57.438.157.834.084 1.275.206.036.01.052-.037.024-.057-.308-.222-.521-.555-.878-.7a63.357 63.357 0 0 0-1.604-.624c-1.013-.38-1.945-.835-3.034-.774-.011 0-.021.008-.031.011a3.714 3.714 0 0 0-.963-.297c1.077-1.147 2.15-2.295 3.141-3.514 1.288-.856 2.544-1.676 3.597-2.832.133-.146.094-.367-.029-.494.176-.155.341-.322.521-.474a27.66 27.66 0 0 1 1.718-1.314c.384-.274.628-.419.735-.887.457.021.903.029 1.347.03-1.657 2.628-.134 5.988 3.025 6.427 1.608.223 3.058-.235 4.268-1.32 1.304-1.168 2.528-4.039 1.442-5.624-.011-.017-.027-.03-.039-.045.383-.006.766-.011 1.147-.021 1.629 2.63.954 5.002-.688 6.963-.017-.135-.169-.255-.294-.16-2.135 1.618-3.92 3.055-6.778 2.569-2.863-.487-4.892-3.039-4.947-5.894-.004-.225-.324-.218-.344 0-.301 3.361 1.1 6.119 4.493 7.086 1.909.544 4.369.164 6.066-1.065 1.758-.328 3.092-1.788 3.899-3.378.965-1.902.473-4.327-.547-6.155a21.48 21.48 0 0 0 1.529-.121c2.518 1.425 4.797 3.277 6.889 5.322a.433.433 0 0 0-.126.31c-.005.33.028.717-.115 1.025a.867.867 0 0 1-.312.338c-.161.113-.2.277-.325.416-.161.178-.072.572.221.534.252-.033.482.006.703-.159.208-.155.375-.335.513-.554.202-.318.245-.708.252-1.091a76.302 76.302 0 0 1 1.837 1.947c-.951.034-1.827.328-2.808.547-1.259.282-2.824.181-3.719 1.276-.12.147-.13.391.063.491 1.199.619 2.552-.021 3.684-.519 1.108-.487 2.196-.713 3.123-1.413.319.353.642.706.953 1.06.484.552 1.266-.245.799-.792zm-36.096 1.389c-.39.006-.78.042-1.163.116.056-.069.073-.317-.006-.39-.13-.119-.219-.379-.321-.552a3.778 3.778 0 0 0 1.608-.19c.333-.118.628-.274.915-.44-.368.463-.71.951-1.033 1.456zm18.045-9.012a.443.443 0 0 0-.222.145c-.216.261-.434.52-.663.769-.234.254-.378.57-.596.836-.178.219-.654.653-.783 1.053-.347-.026-.678-.194-1.041-.542.222-.169.427-.371.633-.603.44-.496.727-.995.6-1.673a.735.735 0 0 0-.42-.536c.397-.041.798-.088 1.208-.148a19.818 19.818 0 0 1 1.649-.157 3.715 3.715 0 0 0-.365.856z"/>
        </g>
    </g>
</svg>
